<?xml version="1.0" standalone="no"?>
<!DOCTYPE svg PUBLIC "-//W3C//DTD SVG 20010904//EN"
 "http://www.w3.org/TR/2001/REC-SVG-20010904/DTD/svg10.dtd">
<svg version="1.0" xmlns="http://www.w3.org/2000/svg"
 width="512.000000pt" height="512.000000pt" viewBox="0 0 512.000000 512.000000"
 preserveAspectRatio="xMidYMid meet">

<g transform="translate(0.000000,512.000000) scale(0.100000,-0.100000)"
fill="#000000" stroke="none">
<path d="M2400 5004 c-14 -2 -40 -7 -57 -10 -38 -6 -44 -24 -9 -24 59 0 59
-13 0 -34 -37 -13 -60 -27 -62 -38 -3 -15 5 -18 50 -18 80 -1 40 -17 -98 -41
-481 -81 -882 -286 -1219 -624 -170 -170 -280 -320 -419 -570 -64 -114 -97
-163 -83 -122 4 9 2 17 -3 17 -6 0 -10 -4 -10 -10 0 -5 -4 -10 -10 -10 -5 0
-10 9 -10 21 0 16 -4 19 -17 14 -37 -15 -53 -17 -53 -6 0 42 -81 -101 -117
-204 -65 -190 -101 -528 -83 -788 24 -350 83 -581 224 -872 120 -248 246 -425
446 -626 147 -148 296 -264 477 -373 l117 -71 -3 -150 c-1 -83 -4 -152 -6
-153 -2 -2 -22 -6 -44 -9 l-41 -6 0 116 c0 94 -3 116 -15 121 -14 5 -15 -2 -9
-52 13 -116 -31 -185 -125 -198 -66 -9 -81 -18 -60 -39 27 -27 92 -30 157 -7
46 16 84 20 196 21 127 1 144 4 197 27 52 24 63 25 106 15 60 -13 133 -8 164
12 18 12 34 14 69 7 24 -4 46 -13 48 -20 3 -7 8 -6 16 4 22 28 214 59 239 37
8 -6 18 -6 27 -1 19 12 60 13 60 1 0 -5 -9 -11 -20 -14 -29 -7 -28 -57 1 -57
37 0 68 52 37 63 -24 8 6 24 55 30 l47 5 2 -47 c0 -25 1 -51 1 -58 -1 -16 93
-27 147 -18 47 8 76 43 86 108 5 29 12 39 31 43 34 9 62 -19 46 -45 -7 -11 -8
-23 -2 -32 13 -20 11 -29 -6 -29 -7 0 -19 8 -25 17 -10 17 -10 16 -8 -2 2 -11
16 -26 31 -33 23 -11 36 -11 84 2 32 9 74 17 93 18 33 3 35 6 40 43 6 49 46
79 128 95 31 6 78 18 104 26 32 11 65 13 100 9 36 -4 68 -2 98 8 25 8 91 18
148 22 57 4 131 11 165 15 89 13 97 26 97 159 l0 106 82 75 c163 147 325 317
404 422 320 427 477 924 461 1453 -6 185 -22 312 -59 470 -24 104 -85 285
-100 300 -8 7 -9 5 -5 -6 3 -9 8 -38 12 -65 l6 -49 -34 64 -34 65 -10 -30 -10
-29 -20 39 -20 38 -12 -30 c-7 -17 -10 -36 -6 -41 11 -19 -3 -12 -33 17 -16
15 -62 90 -102 167 -95 184 -93 181 -109 151 -7 -13 -28 -30 -47 -39 -33 -16
-44 -11 -23 10 16 16 -6 26 -29 14 -11 -6 -24 -6 -36 1 -23 13 -33 3 -16 -17
7 -8 8 -15 2 -15 -5 0 -12 -9 -15 -21 -3 -12 -10 -18 -16 -14 -6 3 -9 10 -6
15 3 5 -4 14 -16 21 -17 9 -31 8 -61 -2 -27 -9 -47 -10 -66 -3 -24 9 -27 15
-25 50 3 36 0 41 -25 51 -22 9 -14 10 40 5 39 -3 73 -1 80 5 7 6 47 12 88 13
41 1 92 3 112 4 l37 1 -19 29 c-10 16 -24 31 -32 32 -7 2 -73 12 -147 23 -135
21 -165 31 -144 52 16 16 86 30 97 19 6 -6 28 -10 50 -10 56 0 92 -10 75 -21
-18 -11 -5 -21 21 -17 22 3 20 6 -20 58 -52 66 -169 191 -227 244 -40 35 -44
37 -59 21 -9 -9 -25 -32 -34 -51 -15 -28 -15 -35 -4 -45 8 -6 14 -27 14 -45 0
-44 -26 -46 -70 -5 -29 26 -31 31 -18 51 24 42 57 72 69 64 8 -5 9 -3 4 5 -4
8 1 18 14 27 12 8 21 19 21 24 0 22 -157 143 -176 136 -7 -3 -11 0 -9 7 8 23
-300 200 -420 241 -42 14 -43 13 -49 -7 -3 -12 -1 -26 4 -31 14 -14 12 -56 -2
-56 -7 0 -33 9 -57 21 -33 14 -42 22 -33 31 8 8 7 18 -4 39 -12 24 -12 28 0
23 7 -3 18 -15 24 -27 6 -12 11 -17 11 -12 1 6 -7 24 -18 41 -21 35 -98 65
-111 44 -6 -9 -10 -8 -17 5 -11 19 -105 46 -230 66 -40 6 -73 16 -73 21 0 5 4
7 9 4 13 -9 41 4 41 18 0 11 -58 45 -100 59 -17 5 -9 10 45 22 l30 7 -40 14
c-39 14 -275 27 -325 18z m223 -158 c7 -19 -1 -26 -32 -27 -14 0 -20 -3 -13
-6 6 -2 12 -11 12 -20 0 -12 -8 -13 -41 -8 -47 8 -149 -2 -149 -15 0 -5 12
-10 28 -12 39 -4 34 -22 -8 -26 -19 -1 -91 -12 -160 -25 -137 -24 -322 -30
-355 -10 -15 9 -1 10 66 6 72 -5 97 -2 153 17 36 12 72 27 79 33 6 7 26 19 42
27 17 8 41 22 55 31 51 33 114 47 216 48 79 1 103 -2 107 -13z m160 -34 c22
-14 36 -32 24 -32 -21 0 -108 34 -118 46 -11 14 -9 15 27 9 21 -4 51 -15 67
-23z m86 -23 l16 -24 -32 23 c-41 29 -51 44 -22 33 13 -4 30 -19 38 -32z m115
-5 c9 -24 2 -26 -12 -4 -7 11 -8 20 -3 20 5 0 12 -7 15 -16z m152 -106 c5 -33
5 -33 -9 -8 -8 14 -17 39 -21 55 -7 29 -7 30 9 8 8 -12 18 -37 21 -55z m-829
-5 c12 -5 -9 -11 -60 -19 -93 -15 -227 -74 -227 -100 0 -10 -3 -15 -6 -11 -9
9 -165 -123 -162 -138 2 -8 -14 -36 -35 -64 -47 -62 -99 -221 -96 -293 2 -26
0 -50 -3 -53 -3 -3 -23 0 -44 7 -30 10 -40 19 -42 38 -2 19 -1 22 7 10 5 -8
13 -11 17 -7 4 3 1 13 -6 22 -39 47 74 314 159 374 16 12 35 21 43 21 8 0 25
12 39 26 36 39 137 113 192 140 76 39 185 62 224 47z m562 -88 c11 -3 18 -12
15 -19 -5 -14 6 -29 49 -61 15 -11 27 -25 27 -32 0 -14 39 -38 48 -29 10 11
41 -25 35 -41 -4 -9 1 -19 10 -25 21 -11 22 -28 2 -28 -21 0 -19 -21 10 -78
29 -58 30 -62 10 -62 -8 0 -15 -4 -15 -10 0 -5 -14 -7 -32 -3 l-33 6 29 -32
c17 -17 24 -31 18 -31 -7 0 -12 -4 -12 -10 0 -5 6 -10 13 -10 6 0 26 -23 42
-51 17 -28 38 -55 48 -60 12 -7 17 -22 17 -54 0 -34 5 -47 20 -55 30 -16 39
-40 51 -143 10 -84 9 -100 -5 -129 -12 -23 -15 -44 -10 -73 4 -22 9 -34 11
-27 6 16 23 5 23 -14 0 -26 -48 -121 -64 -127 -9 -4 -42 -2 -73 4 -49 9 -59 9
-69 -6 -15 -21 -116 -18 -156 4 -34 19 -89 5 -103 -27 -11 -24 -31 -29 -38 -9
-3 9 -9 9 -27 -1 -17 -10 -24 -11 -30 -2 -10 17 -86 31 -128 24 -59 -9 -102
-35 -102 -61 0 -13 -4 -23 -9 -23 -7 0 -23 101 -16 108 1 1 14 -3 28 -9 14 -6
33 -9 43 -5 15 6 14 9 -7 30 -37 36 -69 50 -83 36 -19 -19 -8 -141 15 -166 10
-11 19 -26 19 -32 0 -7 10 -9 30 -5 35 6 42 -12 8 -22 -11 -4 -32 -19 -45 -33
-20 -22 -26 -24 -33 -12 -6 8 -10 32 -10 52 0 48 -19 138 -29 138 -5 0 -11 35
-14 77 -4 58 -2 81 9 97 16 24 18 36 4 36 -5 0 -10 -6 -10 -14 0 -8 -7 -17
-16 -20 -15 -6 -15 -4 -3 10 11 14 11 18 -4 29 -12 9 -16 21 -12 36 4 19 -5
36 -45 79 -28 30 -56 54 -63 52 -7 -1 -4 4 6 11 9 8 17 18 17 22 0 4 -8 14
-17 21 -15 11 -15 13 -3 13 8 0 28 -13 44 -29 22 -23 32 -27 38 -18 6 10 12 8
23 -6 8 -11 15 -27 15 -36 0 -23 34 -52 52 -45 15 6 79 -50 98 -86 11 -19 64
-49 88 -49 8 0 20 -7 26 -15 6 -9 39 -24 73 -34 61 -19 63 -19 99 0 20 10 61
24 91 30 39 9 52 16 48 26 -2 8 8 26 25 42 21 18 27 30 20 37 -7 7 -3 19 14
37 20 22 34 27 70 27 25 0 48 5 51 10 3 6 -3 10 -14 10 -12 0 -21 5 -21 10 0
6 7 10 15 10 8 0 15 5 15 10 0 15 -51 12 -84 -5 -38 -20 -60 -19 -52 1 5 12 2
15 -11 10 -18 -7 -83 53 -83 78 0 18 22 26 49 19 12 -3 21 -1 21 4 0 14 -35
40 -48 35 -7 -2 -12 2 -12 8 0 8 -10 10 -32 6 -43 -9 -49 -9 -137 -2 -41 3
-79 2 -85 -2 -20 -15 -93 -32 -139 -32 -25 0 -49 -5 -52 -11 -4 -5 -18 -14
-31 -19 -17 -7 -24 -17 -24 -35 0 -34 -11 -31 -38 10 -12 19 -27 35 -32 35 -6
0 -10 5 -10 11 0 6 7 9 15 6 8 -4 17 -1 21 5 4 7 3 8 -4 4 -7 -4 -12 -1 -12 8
0 9 -5 15 -12 14 -23 -5 -19 30 8 61 14 18 25 34 22 36 -11 12 -50 -11 -69
-41 -27 -45 -43 -44 -34 2 5 28 3 35 -7 32 -7 -3 -15 -18 -18 -34 -5 -24 -8
-17 -19 40 -8 38 -22 77 -32 87 -9 9 -15 20 -11 23 3 4 7 12 8 19 1 7 5 30 9
52 8 38 7 39 -11 25 -10 -8 -22 -19 -26 -25 -4 -5 -10 -6 -14 -2 -18 18 66
147 97 147 6 0 7 5 3 11 -4 7 -1 10 6 7 12 -4 80 60 80 75 0 10 54 61 65 62 6
0 27 8 49 18 21 9 39 17 40 17 0 0 2 -21 3 -46 3 -71 23 -94 83 -94 27 0 60
-4 74 -10 14 -5 28 -5 30 -1 3 5 -7 11 -22 14 -15 3 -38 16 -51 28 -36 34 -24
82 36 140 27 25 54 48 61 50 19 6 198 2 221 -6z m826 -134 c-6 -5 -25 10 -25
20 0 5 6 4 14 -3 8 -7 12 -15 11 -17z m-1205 -33 c0 -16 -3 -19 -11 -11 -6 6
-8 16 -5 22 11 17 16 13 16 -11z m590 7 c7 -8 8 -15 2 -15 -5 0 -15 7 -22 15
-7 8 -8 15 -2 15 5 0 15 -7 22 -15z m426 -104 c26 -41 32 -56 22 -62 -8 -6
-15 -2 -18 9 -3 9 -20 46 -38 82 -34 69 -24 60 34 -29z m-1272 54 c-7 -16 -24
-21 -24 -6 0 8 7 13 27 20 1 1 0 -6 -3 -14z m-291 -122 c-14 -27 -30 -54 -36
-60 -6 -9 -6 -13 2 -13 8 0 7 -8 -2 -27 -8 -16 -12 -34 -10 -40 3 -7 0 -13 -5
-13 -18 0 -41 -214 -24 -224 6 -3 8 -15 5 -26 -3 -12 0 -20 7 -20 8 0 11 -9 7
-28 -3 -16 -2 -80 3 -143 7 -102 10 -115 31 -129 12 -8 39 -31 60 -51 29 -27
37 -41 32 -57 -3 -12 -10 -22 -15 -22 -6 0 -7 -20 -2 -52 4 -29 8 -62 9 -73 6
-67 42 -201 59 -224 6 -8 20 -32 32 -55 19 -36 25 -41 53 -38 38 3 33 -14 -7
-29 -21 -8 -24 -12 -12 -20 13 -8 13 -10 0 -19 -8 -5 -23 -10 -32 -10 -11 0
-18 -8 -18 -20 0 -15 7 -20 28 -21 21 -1 22 -2 7 -6 -11 -3 -23 -10 -26 -15
-4 -5 -13 -3 -22 6 -23 24 -30 20 -24 -14 4 -16 3 -31 -1 -34 -5 -3 -6 -21 -4
-40 3 -27 10 -37 32 -45 21 -7 31 -19 39 -48 14 -48 14 -73 1 -73 -5 0 -10 -7
-10 -15 0 -8 3 -14 8 -14 23 4 32 -5 42 -41 6 -22 8 -45 5 -51 -4 -5 -4 -18 0
-27 4 -12 11 -2 24 36 28 82 37 80 34 -6 -1 -48 1 -68 6 -52 5 17 13 24 27 22
10 -2 20 -8 22 -12 2 -5 9 -7 16 -4 8 3 24 -7 36 -23 21 -27 22 -27 36 -9 11
16 16 17 29 6 8 -7 15 -19 15 -28 0 -22 30 -52 52 -52 22 0 23 21 2 62 -14 27
-14 30 -1 25 9 -3 18 -1 20 6 3 8 13 4 29 -10 13 -13 31 -23 40 -23 9 0 29 -7
44 -15 16 -8 45 -15 65 -15 61 0 129 -12 123 -22 -3 -5 -29 -8 -57 -7 -50 3
-50 3 -106 -59 -57 -64 -76 -78 -143 -108 -21 -9 -38 -20 -38 -25 0 -4 -16
-16 -36 -25 -42 -20 -43 -20 76 -93 l84 -53 32 37 c17 21 44 63 60 94 24 46
29 68 29 128 0 48 3 69 10 62 5 -5 10 -40 10 -77 0 -58 -5 -78 -39 -147 -22
-44 -47 -91 -57 -103 -17 -22 -17 -26 -2 -48 13 -21 23 -24 77 -24 102 0 156
-22 215 -86 28 -31 51 -63 51 -73 0 -9 4 -21 10 -27 6 -6 6 -30 0 -69 -15 -92
-13 -129 10 -150 11 -10 20 -25 20 -34 0 -10 5 -7 13 8 18 36 37 38 37 4 l0
-28 20 25 20 25 2 -85 c1 -47 4 -101 6 -120 5 -57 5 -80 -3 -176 -5 -58 -4
-93 2 -97 6 -4 13 29 17 86 3 51 13 121 21 157 8 36 17 126 20 200 9 197 9
196 58 221 23 12 58 33 77 48 37 27 78 52 120 71 18 8 21 13 11 19 -8 6 -9 11
-3 15 27 17 31 -109 7 -224 -8 -39 -15 -85 -15 -102 l0 -31 25 23 25 24 -1
-25 c-1 -50 10 -199 16 -208 3 -6 13 -7 21 -4 13 5 14 0 9 -28 -7 -45 6 -65
33 -50 16 9 21 7 25 -9 4 -15 -1 -22 -18 -26 -16 -4 -22 -11 -18 -22 5 -11 2
-14 -9 -9 -9 3 -19 0 -21 -7 -3 -8 4 -11 24 -8 16 2 27 8 24 12 -3 4 1 13 9
19 11 9 17 2 31 -38 19 -52 48 -73 119 -87 35 -6 39 -4 91 53 31 35 78 72 112
91 69 36 75 43 135 142 31 51 48 91 52 125 13 103 58 282 84 334 31 63 116
154 188 202 28 19 79 53 115 77 35 24 67 48 70 55 11 20 69 254 89 356 10 53
28 114 39 136 l20 40 1 -40 c0 -22 4 -47 10 -55 7 -11 11 -9 19 12 5 14 13 43
17 64 l8 39 12 -60 c9 -48 13 -56 19 -37 6 18 10 20 21 11 34 -28 -16 -332
-92 -559 -140 -421 -429 -820 -781 -1078 l-64 -47 7 -143 7 -142 -41 0 -40 0
-8 58 -8 57 -9 -62 c-9 -61 -10 -61 -46 -66 -46 -6 -51 -2 -52 36 -1 18 -5 43
-9 57 -6 19 -8 10 -9 -36 -1 -61 -1 -62 -32 -68 -60 -12 -58 -17 -52 129 4 91
3 135 -4 135 -18 0 -23 -27 -23 -116 0 -58 -5 -95 -16 -115 -28 -55 -134 -78
-184 -40 -22 17 -25 30 -33 118 -4 54 -9 104 -9 111 -1 6 -5 12 -10 12 -4 0
-8 -60 -8 -134 l0 -133 -31 -7 c-58 -11 -56 -15 -64 129 -4 74 -11 138 -16
141 -5 3 -9 -5 -9 -18 0 -37 -12 -46 -60 -50 -50 -3 -61 -21 -16 -26 72 -8
104 -71 72 -139 -22 -45 -69 -65 -149 -61 -57 3 -62 5 -65 27 -5 33 11 45 69
51 56 6 66 22 19 31 -17 4 -43 17 -57 30 -22 21 -24 30 -20 72 2 26 12 56 21
66 12 13 14 21 6 26 -19 12 -102 -181 -109 -255 l-6 -65 -40 -6 c-22 -4 -41
-6 -42 -5 -1 1 -5 29 -9 62 -8 74 -16 84 -60 77 -21 -3 -34 -2 -34 5 0 6 16
12 35 14 l35 3 -30 63 c-32 67 -32 67 31 75 44 6 55 0 64 -36 10 -37 19 -34
31 12 12 44 3 71 -25 71 -18 0 -35 35 -25 52 9 15 33 8 48 -14 9 -12 18 -19
21 -16 8 7 -16 58 -27 58 -4 0 -8 5 -8 11 0 6 8 8 19 4 14 -4 20 1 25 20 4 15
17 30 31 35 18 7 25 17 25 37 0 16 7 41 15 57 8 15 15 37 15 48 0 16 3 18 14
9 11 -9 12 -6 8 14 -2 14 2 33 9 43 13 15 12 16 -3 4 -9 -8 -22 -11 -29 -7 -6
4 -15 1 -20 -6 -6 -10 -9 -7 -9 11 0 20 -2 22 -10 10 -5 -8 -10 -31 -10 -51 0
-37 -31 -89 -53 -89 -20 0 -38 39 -39 86 -1 49 8 66 23 44 6 -10 8 -3 4 22 -2
21 0 38 5 38 13 0 13 41 0 60 -8 13 -10 12 -10 -2 0 -10 -4 -18 -10 -18 -12 0
-12 2 0 34 5 14 14 26 20 26 6 0 8 -6 4 -12 -11 -20 9 2 39 44 30 41 32 53 16
95 l-10 28 -17 -28 c-9 -15 -23 -25 -30 -22 -7 3 -11 1 -7 -4 7 -12 -4 -41
-16 -41 -5 0 -11 11 -15 25 -8 31 -18 32 -32 2 -9 -19 -10 -16 -10 23 -1 85
-9 161 -18 168 -5 5 -21 13 -36 20 -26 11 -26 11 -17 -18 6 -16 9 -39 7 -52
-4 -21 -6 -20 -27 15 -24 39 -80 81 -123 92 -30 8 -81 52 -73 64 3 5 27 17 53
27 26 9 65 25 88 35 22 11 52 19 67 19 14 0 28 4 32 9 6 11 -12 17 -82 26 -41
5 -59 14 -92 45 -22 21 -62 45 -89 54 -27 9 -57 25 -67 36 -9 10 -27 21 -41
24 -13 4 -24 11 -24 16 0 6 -4 10 -10 10 -19 0 -160 102 -160 116 0 8 -4 14
-10 14 -5 0 -15 18 -21 41 -12 37 -45 66 -71 61 -4 -1 -15 14 -24 34 -11 23
-22 33 -31 30 -8 -3 -12 -2 -9 3 12 18 -64 79 -83 67 -13 -9 -32 20 -25 38 4
9 -4 28 -20 47 -14 17 -26 39 -26 49 0 11 -13 35 -30 53 -16 19 -30 42 -30 51
0 9 -7 16 -16 16 -12 0 -15 7 -12 29 4 29 3 29 -35 25 -22 -2 -44 -8 -51 -12
-6 -5 -24 -12 -39 -16 -61 -14 -82 -101 -51 -206 24 -80 81 -217 105 -253 48
-70 124 -132 190 -156 46 -17 78 -38 113 -72 l49 -49 54 7 c42 4 53 3 51 -7
-2 -8 13 -18 37 -24 74 -20 86 -41 29 -52 -30 -5 -41 -2 -74 25 -37 29 -44 31
-90 25 -27 -4 -50 -10 -50 -14 0 -11 25 -30 63 -49 20 -10 42 -34 57 -63 24
-46 24 -49 8 -75 -21 -35 -48 -42 -55 -14 -3 12 -13 21 -24 21 -10 0 -25 10
-33 22 -25 35 -28 15 -6 -37 12 -27 24 -68 27 -91 8 -59 -5 -134 -23 -134 -8
0 -14 -7 -14 -15 0 -19 -9 -19 -32 2 -17 15 -18 14 -20 -18 0 -19 -1 -40 -1
-47 1 -17 -14 -15 -21 3 -3 8 -12 15 -21 15 -8 0 -15 9 -15 20 0 23 -32 44
-47 29 -7 -7 -30 -2 -69 13 -59 22 -111 26 -171 13 -35 -8 -41 -23 -21 -43 19
-19 -8 -32 -67 -31 -72 1 -99 11 -103 37 -2 12 2 22 8 22 6 0 9 4 6 9 -3 5 17
11 44 15 54 7 50 2 55 84 2 21 22 49 71 100 72 74 125 103 214 116 25 4 57 12
73 18 29 11 37 28 12 28 -8 0 -15 5 -15 10 0 33 -175 -25 -295 -98 -148 -90
-283 -206 -358 -306 -25 -33 -34 -53 -28 -60 6 -7 6 -27 1 -51 -9 -42 15 -185
32 -185 4 0 8 -9 8 -20 0 -11 5 -20 10 -20 6 0 10 -6 10 -14 0 -8 19 -21 43
-29 37 -14 39 -16 14 -16 -30 -1 -67 15 -79 33 -4 6 -10 7 -14 3 -24 -24 202
-177 406 -276 139 -67 344 -142 385 -142 11 0 45 3 76 7 53 6 58 4 90 -24 33
-30 34 -32 34 -109 0 -85 -13 -118 -59 -148 -58 -39 -145 -26 -170 24 -25 48
-28 121 -8 179 18 50 18 52 1 52 -13 0 -19 -9 -21 -32 -3 -31 -6 -33 -53 -40
-59 -8 -75 -26 -75 -84 0 -56 16 -68 80 -59 l50 7 0 -35 c0 -20 -5 -39 -11
-43 -21 -13 -135 -17 -157 -5 -40 22 -55 67 -49 152 3 45 11 87 21 101 16 24
16 24 -19 20 -32 -4 -35 -7 -35 -38 0 -35 0 -35 -88 -47 -28 -4 -15 -20 28
-33 55 -16 70 -36 70 -91 0 -70 -48 -103 -151 -103 l-59 0 0 35 c0 36 4 38 90
47 35 4 28 21 -12 31 -18 5 -43 18 -56 30 -19 18 -22 30 -20 72 3 47 5 51 46
74 l44 24 -64 26 c-218 93 -472 274 -673 482 -283 293 -472 630 -565 1011 -27
110 -48 251 -41 273 2 6 9 30 16 55 7 25 14 39 14 33 1 -7 6 -13 12 -13 5 0 8
4 5 8 -3 5 0 26 6 48 l11 39 10 -37 c10 -43 24 -50 29 -15 2 12 9 21 16 19 6
-1 12 4 12 10 0 27 20 -18 21 -47 1 -29 1 -29 8 -5 4 14 4 30 -1 37 -5 6 -8
31 -6 55 3 49 9 51 125 52 58 1 72 10 28 18 -11 2 -21 11 -23 21 -3 15 1 17
22 11 16 -4 26 -2 26 5 0 6 -7 11 -15 11 -8 0 -15 4 -15 9 0 5 15 8 33 7 47
-4 47 -5 40 -21 -3 -9 2 -22 13 -30 22 -16 34 -11 34 16 0 10 5 19 10 19 6 0
10 -4 10 -10 0 -5 5 -10 11 -10 5 0 7 5 4 10 -4 6 -2 16 3 23 6 7 12 33 14 57
2 29 7 44 16 42 10 -2 18 40 10 51 -2 2 3 12 11 21 11 13 11 20 3 28 -7 7 -12
15 -12 20 0 7 59 3 67 -6 8 -8 86 26 106 46 25 25 45 23 53 -7 3 -13 12 -30
20 -36 12 -10 16 -8 21 9 3 13 13 22 25 22 11 0 22 8 25 19 4 15 12 18 49 13
26 -3 44 -1 44 6 0 5 9 12 20 15 14 4 20 14 20 32 0 23 2 26 15 15 9 -7 19
-10 22 -6 4 4 3 10 -3 14 -17 11 -24 41 -12 48 7 5 4 10 -9 15 -13 4 -27 27
-39 58 -10 28 -22 51 -26 51 -11 0 -11 2 12 -65 22 -65 19 -88 -5 -32 -8 19
-26 44 -41 56 -24 19 -28 19 -55 5 -27 -13 -28 -16 -14 -30 8 -9 15 -24 15
-35 0 -17 -3 -18 -22 -7 -13 7 -44 32 -70 56 -26 23 -55 42 -66 42 -34 0 -56
24 -48 54 5 19 12 26 21 22 8 -3 15 -1 15 4 0 11 -11 13 -34 4 -9 -3 -16 -12
-16 -20 0 -8 -6 -11 -17 -7 -11 4 -14 3 -9 -5 4 -7 2 -12 -3 -12 -17 0 -13 27
5 34 11 4 14 13 11 27 -3 12 -3 18 0 15 3 -3 13 9 22 27 10 21 27 35 48 41 28
9 32 14 35 55 3 25 1 54 -4 64 -6 12 -4 22 7 33 21 21 19 35 -5 41 -13 3 -20
14 -20 29 0 12 -5 26 -10 29 -6 3 -10 11 -10 16 0 6 4 7 10 4 5 -3 10 -1 10 4
0 6 7 11 15 11 8 0 15 6 15 13 0 18 28 -39 32 -65 3 -25 33 -32 33 -9 0 20 42
34 49 15 3 -8 3 -21 0 -29 -4 -8 -1 -15 5 -15 6 0 11 6 11 13 1 6 10 1 22 -13
13 -15 23 -20 25 -13 2 7 11 9 19 6 8 -3 14 1 14 11 0 12 10 16 36 16 36 0 36
-1 30 -32 -3 -18 -13 -38 -21 -44 -13 -10 -10 -14 21 -29 19 -9 34 -18 32 -21
-4 -4 -44 -12 -65 -13 -16 -1 -16 -12 -2 -48 7 -15 13 -37 14 -48 25 -173 32
-194 47 -159 7 15 7 14 3 -6 -2 -14 -5 -33 -5 -43 0 -14 -5 -17 -21 -12 -14 5
-19 3 -15 -4 9 -13 73 -31 91 -25 7 3 16 0 20 -6 5 -8 11 -7 23 2 12 10 14 10
8 1 -5 -10 3 -13 33 -13 21 0 46 -3 55 -6 11 -4 16 0 16 14 0 21 14 23 40 7
20 -12 33 -15 110 -18 37 -2 73 -7 80 -13 27 -16 70 -11 70 9 0 10 5 15 11 12
6 -4 8 -13 5 -21 -9 -23 12 -26 27 -3 8 11 17 15 19 9 2 -7 16 -6 44 4 24 8
45 11 51 5 4 -4 19 -6 32 -2 23 6 23 9 18 75 -5 59 -10 74 -35 99 -16 16 -40
51 -53 77 -22 44 -24 59 -25 207 -1 88 -6 185 -12 215 -6 30 -13 84 -14 118
-3 72 -13 85 -39 51 l-18 -24 -10 28 c-6 16 -11 37 -11 49 0 31 29 123 45 144
14 18 15 17 9 -8 -10 -45 9 -31 34 24 12 28 24 49 27 46 3 -2 -4 -47 -16 -98
-22 -102 -22 -167 0 -90 19 66 62 149 87 169 12 9 24 27 28 39 4 12 11 22 16
22 5 0 -2 -21 -17 -47z m1857 -132 c-14 -27 -13 -34 6 -27 8 3 12 2 9 -3 -3
-5 -1 -12 5 -16 5 -3 10 -1 10 4 0 6 5 11 10 11 25 0 -12 -169 -39 -178 -16
-5 -13 -22 4 -22 8 0 15 -4 15 -10 0 -5 9 -10 20 -10 13 0 18 5 14 14 -4 11 4
17 30 21 55 11 80 -17 31 -35 -14 -5 -25 -15 -25 -21 0 -8 -14 -10 -45 -6
l-45 7 0 -43 c-1 -23 -1 -53 -1 -67 0 -14 4 -38 10 -53 9 -22 15 -26 38 -21
22 4 36 -2 68 -30 22 -20 49 -36 61 -36 11 0 40 -10 65 -22 42 -20 43 -22 19
-28 l-25 -6 23 -15 c26 -16 77 -107 66 -117 -4 -4 -9 -1 -12 7 -3 8 -20 30
-39 50 -25 27 -30 29 -19 10 9 -14 14 -28 11 -31 -3 -3 2 -22 10 -42 9 -20 13
-41 11 -45 -3 -4 3 -32 14 -62 25 -67 25 -83 3 -77 -16 4 -18 -2 -15 -64 3
-51 0 -74 -11 -86 -8 -9 -18 -27 -21 -39 -7 -20 -4 -23 22 -23 17 0 32 5 34
12 3 8 24 11 64 9 32 -1 85 -4 117 -5 l58 -3 69 68 c70 68 90 107 49 94 -11
-4 -35 0 -54 9 -31 15 -33 19 -29 54 3 20 10 50 16 65 15 39 3 45 -17 8 -8
-17 -23 -31 -31 -31 -9 0 -18 -9 -21 -20 -3 -12 -14 -20 -25 -20 -14 0 -18 -5
-14 -15 3 -9 -3 -19 -14 -25 -21 -11 -24 -8 -21 22 2 13 -3 16 -14 11 -16 -5
-16 -4 -1 26 9 17 21 31 26 31 6 0 10 5 10 11 0 20 90 137 128 165 20 15 41
34 45 41 15 25 25 12 55 -69 43 -121 71 -226 93 -351 24 -136 28 -131 -121
-133 -91 -1 -193 -15 -292 -40 -25 -5 -28 -3 -28 17 0 28 -20 13 -22 -17 -1
-13 -10 -19 -29 -20 -15 -1 -35 -5 -45 -9 -11 -5 -39 -9 -64 -11 -25 -1 -78
-7 -119 -13 -41 -6 -76 -10 -78 -8 -2 2 4 20 12 40 8 20 15 46 15 58 0 17 5
20 21 16 15 -4 19 -2 15 10 -5 12 0 13 24 8 30 -7 39 2 20 21 -7 7 -2 20 15
40 41 47 45 52 55 79 20 53 7 148 -23 167 -8 5 -6 8 6 8 17 0 17 2 -3 30 -25
34 -45 40 -37 9 4 -16 3 -18 -9 -8 -8 6 -14 15 -14 20 0 5 -9 18 -20 29 -11
11 -20 27 -20 35 0 8 -7 15 -15 15 -9 0 -15 -9 -15 -22 0 -20 -1 -21 -20 -3
-21 19 -18 37 5 28 9 -3 15 1 15 11 0 24 25 19 62 -11 32 -27 73 -53 83 -53 3
0 5 6 5 14 0 8 -17 25 -37 37 -57 35 -123 99 -123 120 0 9 -16 31 -36 47 -35
29 -36 31 -28 73 5 24 7 71 4 104 -5 58 -6 60 -47 83 -40 22 -61 51 -28 38 18
-7 20 5 3 22 -9 9 -9 12 -1 12 7 0 15 -4 18 -10 7 -12 85 -14 85 -2 0 5 -12
15 -27 23 -93 47 -142 83 -167 121 -14 22 -24 43 -22 46 3 3 21 -7 40 -22 19
-14 41 -26 49 -26 21 0 28 -12 16 -27 -9 -10 -8 -13 4 -13 16 0 57 50 57 69 0
6 6 11 14 11 8 0 16 7 20 15 3 8 12 15 21 15 12 0 14 -4 5 -19z m-264 -275
c-22 -68 -23 -69 -30 -36 -5 27 -1 42 20 73 14 21 27 37 29 35 2 -1 -7 -34
-19 -72z m-1266 -16 c0 -5 -2 -10 -4 -10 -3 0 -8 5 -11 10 -3 6 -1 10 4 10 6
0 11 -4 11 -10z m1456 -125 c-13 -229 -16 -246 -52 -282 -33 -33 -54 -42 -54
-23 0 6 -7 10 -16 10 -9 0 -22 17 -31 40 -9 22 -20 40 -25 40 -4 0 -8 9 -8 19
0 13 15 27 48 43 40 20 47 28 50 56 4 42 -19 78 -64 99 l-34 17 31 13 c79 33
104 4 93 -113 -5 -51 -3 -74 4 -74 22 0 33 78 26 181 l-7 101 22 -13 c22 -13
23 -18 17 -114z m594 20 c0 -8 -7 -15 -15 -15 -8 0 -15 7 -15 15 0 8 7 15 15
15 8 0 15 -7 15 -15z m-2969 -45 c5 0 9 -5 9 -11 0 -8 -4 -9 -13 0 -8 6 -17 8
-20 4 -14 -13 -6 -23 17 -23 14 0 30 -10 41 -26 13 -21 21 -24 46 -19 24 5 29
3 29 -12 0 -11 7 -28 15 -39 22 -29 18 -47 -19 -76 -38 -31 -66 -36 -66 -13 0
8 -11 17 -25 21 -16 4 -25 13 -25 25 0 10 -4 19 -8 19 -8 0 -32 58 -32 78 0 7
7 12 15 12 8 0 15 5 15 10 0 6 -7 10 -15 10 -15 0 -35 30 -35 52 0 9 3 9 10
-2 8 -13 12 -13 27 3 16 15 18 16 21 2 2 -8 8 -15 13 -15z m1356 24 c-3 -3
-12 -4 -19 -1 -8 3 -5 6 6 6 11 1 17 -2 13 -5z m-1605 -12 c27 -11 7 -31 -20
-21 -13 5 -20 13 -17 19 7 11 13 12 37 2z m3283 -25 c7 10 17 14 21 10 10 -9
-9 -44 -21 -39 -5 2 -12 -3 -17 -12 -5 -9 -22 -16 -41 -16 l-31 0 34 33 c23
21 36 28 38 19 3 -10 7 -8 17 5z m-133 -43 c5 -4 5 -10 -1 -17 -5 -7 -13 -32
-18 -57 -8 -40 -12 -45 -38 -47 -28 -3 -29 -2 -7 7 21 9 23 15 19 57 l-4 48
-102 9 c-84 7 -105 6 -112 -5 -5 -8 -9 -9 -9 -3 0 6 3 14 8 19 8 8 249 -2 264
-11z m-1982 -60 c0 -7 9 -19 20 -27 19 -13 22 -29 28 -143 6 -108 5 -137 -10
-179 -16 -48 -16 -51 3 -82 l20 -32 -23 -35 c-13 -19 -30 -37 -38 -39 -8 -3
-23 -8 -32 -12 -13 -5 -18 -2 -18 9 0 9 8 16 18 16 10 0 28 10 40 23 19 20 20
26 9 64 -8 32 -8 60 1 115 11 62 10 81 -3 126 -9 29 -15 76 -14 105 2 34 -3
63 -14 84 -21 40 -22 66 -2 39 8 -11 15 -25 15 -32z m-716 -102 c24 5 27 3 24
-21 -2 -18 -10 -27 -25 -29 -25 -4 -32 -32 -9 -32 20 0 31 -52 13 -65 -17 -12
0 -34 21 -27 7 2 24 1 37 -2 l24 -6 -16 -44 c-12 -32 -23 -46 -40 -49 -15 -3
-23 1 -23 10 0 10 -9 14 -32 11 -19 -2 -33 2 -35 10 -3 8 7 12 31 12 20 0 36
5 36 10 0 6 -8 10 -17 10 -23 0 -53 29 -53 51 0 10 -4 21 -10 24 -6 4 -4 17 5
35 15 29 20 60 9 60 -3 0 -15 -10 -26 -22 l-19 -23 6 30 c4 17 15 38 26 48 10
10 19 23 19 29 0 7 6 4 13 -7 10 -12 22 -16 41 -13z m2686 24 c0 -2 -7 -9 -15
-16 -12 -10 -15 -10 -15 4 0 9 7 16 15 16 8 0 15 -2 15 -4z m-3695 -56 c3 -5
2 -10 -4 -10 -5 0 -13 5 -16 10 -3 6 -2 10 4 10 5 0 13 -4 16 -10z m65 -32 c0
-16 -3 -19 -11 -11 -6 6 -8 16 -5 22 11 17 16 13 16 -11z m70 2 c0 -11 -2 -20
-4 -20 -2 0 -6 9 -9 20 -3 11 -1 20 4 20 5 0 9 -9 9 -20z m1880 -140 c0 -5 -5
-10 -11 -10 -5 0 -7 5 -4 10 3 6 8 10 11 10 2 0 4 -4 4 -10z m-700 -16 c0 -17
-22 -14 -28 4 -2 7 3 12 12 12 9 0 16 -7 16 -16z m-175 -25 c10 -15 -1 -23
-20 -15 -9 3 -13 10 -10 16 8 13 22 13 30 -1z m185 -9 c0 -5 -4 -10 -10 -10
-5 0 -10 5 -10 10 0 6 5 10 10 10 6 0 10 -4 10 -10z m-1413 -32 c-3 -8 -6 -5
-6 6 -1 11 2 17 5 13 3 -3 4 -12 1 -19z m631 -53 c-3 -3 -9 2 -12 12 -6 14 -5
15 5 6 7 -7 10 -15 7 -18z m1132 -139 c0 -8 -4 -17 -9 -21 -12 -7 -24 12 -16
25 9 15 25 12 25 -4z m520 -2 c0 -4 -8 -13 -17 -21 -23 -17 -134 -75 -138 -71
-1 2 -6 13 -9 25 -6 19 -2 23 31 29 21 3 45 12 53 19 25 21 80 34 80 19z m-10
-89 c-16 -19 -30 -19 -30 0 0 17 33 38 38 24 2 -5 -2 -16 -8 -24z m-181 2 c13
-16 5 -27 -21 -27 -20 0 -21 1 -12 24 7 20 18 20 33 3z m136 -27 c-3 -5 -11
-10 -16 -10 -6 0 -7 5 -4 10 3 6 11 10 16 10 6 0 7 -4 4 -10z m1081 -15 c-21
-16 -32 -13 -21 4 3 6 14 11 23 11 15 -1 15 -2 -2 -15z m-1121 -5 c-3 -5 -12
-10 -18 -10 -7 0 -6 4 3 10 19 12 23 12 15 0z m1255 0 c0 -5 -4 -10 -10 -10
-5 0 -10 5 -10 10 0 6 5 10 10 10 6 0 10 -4 10 -10z m-174 -37 c12 -57 49
-150 84 -213 37 -68 75 -152 105 -235 10 -27 35 -66 54 -86 76 -78 111 -119
111 -132 0 -14 40 -37 64 -37 8 0 19 -6 25 -13 6 -8 42 -19 80 -26 38 -7 77
-18 86 -25 14 -10 5 -16 -62 -44 -43 -18 -85 -32 -93 -32 -8 0 -55 -10 -104
-22 -80 -19 -96 -20 -167 -9 -43 7 -118 15 -166 18 -48 3 -95 11 -103 18 -8 7
-35 23 -60 35 -25 12 -59 33 -76 46 -17 12 -43 26 -57 29 -14 4 -35 18 -48 31
-29 31 -79 33 -86 3 -4 -16 -8 -17 -14 -7 -10 16 -2 47 19 71 9 11 11 17 4 17
-7 0 -12 -4 -12 -10 0 -5 -6 -10 -14 -10 -9 0 -13 -7 -11 -20 2 -11 0 -20 -5
-20 -4 0 -14 32 -20 72 -12 70 -12 72 11 89 21 16 22 19 6 19 -25 0 -16 22 14
37 13 7 52 39 85 73 34 33 67 60 74 60 8 0 22 7 32 17 29 26 23 -5 -12 -60
-16 -26 -30 -58 -30 -70 0 -12 -15 -46 -34 -75 -43 -65 -30 -68 20 -4 21 26
59 70 84 97 73 79 130 162 137 197 3 18 10 38 15 45 5 6 10 27 11 46 1 19 6
33 11 29 5 -3 6 17 2 47 -5 35 -3 58 5 67 17 21 28 17 35 -13z m-866 -134 c0
-4 7 -6 15 -3 19 8 20 -19 1 -35 -9 -8 -16 -8 -20 -2 -4 6 -13 8 -20 5 -20 -8
-29 12 -16 35 10 19 40 19 40 0z m90 -55 c0 -8 -5 -12 -10 -9 -6 4 -8 11 -5
16 9 14 15 11 15 -7z m-116 -11 c16 -59 17 -83 3 -83 -7 0 -17 3 -21 7 -4 4
-25 6 -46 4 -67 -4 -66 50 1 74 48 18 57 17 63 -2z m-646 -670 c-10 -2 -26 -2
-35 0 -10 3 -2 5 17 5 19 0 27 -2 18 -5z m842 -309 c0 -22 -19 -16 -45 14 -37
41 -31 57 10 26 19 -14 35 -33 35 -40z m-420 -1005 l0 -110 55 6 55 7 0 -40
c0 -46 -1 -46 -123 -57 l-78 -7 3 148 3 149 35 6 c19 4 38 7 43 8 4 0 7 -49 7
-110z m-112 54 c-3 -37 -4 -38 -55 -48 -70 -14 -77 -25 -15 -25 l52 0 0 -39
c0 -38 0 -38 -45 -44 -49 -5 -60 -10 -51 -25 3 -5 28 -6 56 -2 57 7 64 2 58
-47 -3 -28 -4 -28 -98 -39 -52 -6 -97 -9 -100 -7 -3 3 -7 47 -8 99 l-4 94 -26
0 c-15 0 -34 5 -42 11 -11 8 -4 9 28 7 l42 -4 0 38 c0 20 6 40 13 45 14 9 91
19 155 22 l43 1 -3 -37z m562 -272 c0 -5 -11 -12 -25 -15 -18 -5 -25 -13 -25
-31 0 -13 5 -27 11 -31 7 -4 9 0 5 14 -8 23 23 40 36 20 22 -35 -12 -74 -52
-60 -53 19 -31 112 27 112 12 0 23 -4 23 -9z m-102 -10 c21 -13 11 -55 -15
-59 -14 -2 -23 -11 -25 -25 -6 -40 -23 -23 -26 27 -2 32 1 52 10 57 17 11 39
11 56 0z m-215 -31 c-4 -5 -17 -10 -28 -13 -19 -5 -19 -5 3 -12 12 -4 22 -11
22 -15 0 -4 -10 -11 -22 -15 -22 -7 -22 -8 5 -12 37 -6 29 -27 -11 -31 l-32
-3 0 55 c0 52 1 55 28 58 32 4 47 -1 35 -12z m-95 -65 c-19 -58 -44 -58 -61 2
-8 26 -13 51 -10 56 9 15 22 6 31 -20 9 -26 10 -26 17 -8 5 11 13 26 19 34 17
22 19 -17 4 -64z"/>
<path d="M1825 4389 c-11 -17 1 -21 15 -4 8 9 8 15 2 15 -6 0 -14 -5 -17 -11z"/>
<path d="M1665 4030 c-3 -5 -1 -10 4 -10 6 0 11 5 11 10 0 6 -2 10 -4 10 -3 0
-8 -4 -11 -10z"/>
<path d="M2185 4289 c-4 -6 -5 -12 -2 -15 2 -3 7 2 10 11 7 17 1 20 -8 4z"/>
<path d="M2760 4197 c0 -25 -5 -58 -11 -74 -9 -25 -9 -27 6 -13 15 16 24 114
11 127 -3 3 -6 -14 -6 -40z"/>
<path d="M2317 3933 c-4 -3 -7 -11 -7 -17 0 -6 5 -5 12 2 6 6 9 14 7 17 -3 3
-9 2 -12 -2z"/>
<path d="M2407 3499 c7 -7 15 -10 18 -7 3 3 -2 9 -12 12 -14 6 -15 5 -6 -5z"/>
<path d="M980 3230 c0 -5 5 -10 10 -10 6 0 10 5 10 10 0 6 -4 10 -10 10 -5 0
-10 -4 -10 -10z"/>
<path d="M1255 3140 c3 -5 10 -10 16 -10 5 0 9 5 9 10 0 6 -7 10 -16 10 -8 0
-12 -4 -9 -10z"/>
<path d="M1250 3110 c0 -5 5 -10 10 -10 6 0 10 5 10 10 0 6 -4 10 -10 10 -5 0
-10 -4 -10 -10z"/>
<path d="M1890 3090 c-12 -8 -11 -10 8 -10 12 0 22 -4 22 -10 0 -5 -7 -10 -15
-10 -17 0 -18 -2 -9 -24 9 -24 22 -19 44 16 15 24 16 34 7 40 -16 10 -39 10
-57 -2z"/>
<path d="M1970 3066 c0 -9 5 -16 10 -16 6 0 10 4 10 9 0 6 -4 13 -10 16 -5 3
-10 -1 -10 -9z"/>
<path d="M605 2680 c3 -5 8 -10 11 -10 2 0 4 5 4 10 0 6 -5 10 -11 10 -5 0 -7
-4 -4 -10z"/>
<path d="M2508 2323 c7 -3 16 -2 19 1 4 3 -2 6 -13 5 -11 0 -14 -3 -6 -6z"/>
<path d="M4441 1957 c-23 -12 -50 -34 -59 -49 -9 -16 -21 -27 -25 -25 -16 5
-148 -136 -168 -179 -26 -56 -35 -148 -19 -179 15 -28 6 -45 -12 -27 -22 22
-36 13 -42 -25 -17 -117 -18 -145 -6 -138 21 13 145 188 213 300 60 101 173
333 165 341 -2 1 -23 -7 -47 -19z"/>
<path d="M1950 1880 c0 -5 5 -10 10 -10 6 0 10 5 10 10 0 6 -4 10 -10 10 -5 0
-10 -4 -10 -10z"/>
<path d="M1487 1805 c-2 -5 -29 -9 -60 -8 -50 2 -57 1 -57 -16 0 -12 -8 -21
-22 -24 -20 -4 -19 -4 5 -6 31 -1 38 -21 7 -21 -29 0 -25 -19 6 -31 28 -10 59
-5 82 14 11 9 11 12 -5 18 -12 5 -8 7 15 6 18 0 38 5 44 11 7 7 20 12 30 12
10 0 21 7 24 15 4 8 9 13 13 11 4 -3 18 4 31 15 l25 19 -67 -3 c-38 -1 -69 -6
-71 -12z"/>
<path d="M1930 1780 c0 -5 7 -10 16 -10 8 0 12 5 9 10 -3 6 -10 10 -16 10 -5
0 -9 -4 -9 -10z"/>
<path d="M1270 1715 c0 -20 5 -25 23 -25 30 0 36 6 30 31 -3 12 -14 19 -29 19
-19 0 -24 -5 -24 -25z"/>
<path d="M817 1683 c-4 -3 -7 -14 -7 -24 0 -21 -19 -29 -42 -18 -10 6 -19 5
-23 -1 -4 -7 -13 -7 -26 0 -23 13 -24 2 -4 -27 10 -14 22 -20 31 -16 13 5 15
1 10 -15 -10 -30 46 -110 193 -279 48 -55 224 -221 194 -183 -21 27 -43 104
-43 151 0 88 63 222 117 247 18 9 20 17 16 53 -5 37 -4 41 11 36 14 -6 15 -3
6 13 -6 11 -16 20 -23 20 -7 0 -29 11 -49 25 -38 26 -78 31 -150 19 -35 -6
-38 -9 -38 -39 0 -30 -2 -32 -35 -31 -38 1 -55 17 -55 54 0 12 -4 22 -10 22
-5 0 -10 -9 -10 -20 l0 -21 -22 21 c-23 21 -31 24 -41 13z m-21 -110 c-10 -10
-19 5 -10 18 6 11 8 11 12 0 2 -7 1 -15 -2 -18z m42 -42 c3 -8 -1 -12 -9 -9
-7 2 -15 10 -17 17 -3 8 1 12 9 9 7 -2 15 -10 17 -17z m287 -21 c3 -5 1 -10
-4 -10 -6 0 -11 5 -11 10 0 6 2 10 4 10 3 0 8 -4 11 -10z m-72 -17 c-7 -2 -19
-2 -25 0 -7 3 -2 5 12 5 14 0 19 -2 13 -5z"/>
<path d="M940 1680 c-24 -8 -23 -8 8 -9 20 -1 31 3 27 9 -3 6 -7 10 -8 9 -1
-1 -13 -5 -27 -9z"/>
<path d="M3460 1039 c0 -5 5 -7 10 -4 6 3 10 8 10 11 0 2 -4 4 -10 4 -5 0 -10
-5 -10 -11z"/>
<path d="M3538 1023 c7 -3 16 -2 19 1 4 3 -2 6 -13 5 -11 0 -14 -3 -6 -6z"/>
<path d="M3441 848 c-29 -23 -48 -44 -42 -46 7 -2 18 2 27 9 8 6 37 23 65 35
28 13 48 28 44 34 -12 19 -40 9 -94 -32z"/>
<path d="M3121 830 c0 -8 4 -22 9 -30 12 -18 12 -2 0 25 -6 13 -9 15 -9 5z"/>
<path d="M3694 799 c3 -17 6 -38 6 -45 0 -8 5 -14 10 -14 18 0 12 77 -6 84
-14 5 -16 1 -10 -25z"/>
<path d="M3397 774 c-11 -12 -8 -162 3 -169 6 -4 18 -1 26 6 21 18 16 162 -6
167 -9 1 -19 0 -23 -4z"/>
<path d="M2052 588 c-18 -18 -15 -113 3 -128 21 -18 42 2 50 49 11 65 -20 112
-53 79z"/>
<path d="M3895 3890 c-3 -5 -1 -10 4 -10 6 0 11 5 11 10 0 6 -2 10 -4 10 -3 0
-8 -4 -11 -10z"/>
<path d="M4192 2958 c-14 -14 -16 -28 -3 -28 5 0 11 9 14 20 6 23 5 24 -11 8z"/>
<path d="M3588 3463 c7 -3 16 -2 19 1 4 3 -2 6 -13 5 -11 0 -14 -3 -6 -6z"/>
<path d="M1500 3364 c0 -8 5 -12 10 -9 6 3 10 10 10 16 0 5 -4 9 -10 9 -5 0
-10 -7 -10 -16z"/>
<path d="M2920 370 c0 -5 5 -10 10 -10 6 0 10 5 10 10 0 6 -4 10 -10 10 -5 0
-10 -4 -10 -10z"/>
<path d="M1197 493 c-11 -10 -8 -121 3 -128 35 -22 74 62 51 111 -10 23 -40
32 -54 17z"/>
<path d="M2830 359 c0 -5 5 -7 10 -4 6 3 10 8 10 11 0 2 -4 4 -10 4 -5 0 -10
-5 -10 -11z"/>
<path d="M2507 334 c-8 -8 2 -55 14 -68 5 -6 9 8 9 32 0 39 -8 51 -23 36z"/>
<path d="M2351 298 c-1 -9 -9 -22 -18 -27 -16 -9 -15 -10 5 -11 30 0 24 -24
-6 -28 -12 -2 -20 -8 -17 -13 11 -17 105 -7 105 11 0 5 -10 10 -22 12 -16 2
-27 14 -35 38 -7 19 -12 27 -12 18z"/>
<path d="M2178 290 c10 -12 9 -18 -10 -32 l-23 -18 23 0 c36 0 21 -24 -17 -28
-26 -3 -34 1 -38 18 -5 20 -6 20 -19 -6 -19 -35 -11 -44 39 -44 88 0 117 62
52 110 -17 12 -18 12 -7 0z"/>
<path d="M2260 255 c0 -8 5 -15 10 -15 6 0 10 7 10 15 0 8 -4 15 -10 15 -5 0
-10 -7 -10 -15z"/>
<path d="M1967 220 c4 -13 0 -26 -8 -31 -10 -6 -8 -9 9 -9 19 0 23 5 20 27 -2
14 -8 28 -15 30 -7 3 -9 -3 -6 -17z"/>
</g>
</svg>
